<svg id="logosandtypes_com" xmlns="http://www.w3.org/2000/svg" viewBox="0 0 150 150"><style>.st1{fill:#35a18f}</style><path d="M0 0h150v150H0V0z" fill="none"/><path class="st1" d="M112.1 19.5H37.8v111.2h74.4V19.5zM46.7 78c-.3-.2-.5-.4-.7-.7l2-2.6c1 .8 2 1.5 3.1 2.1.9.5 1.8.9 2.7 1.2.7.3 1.3.5 2.1.5.3.1.6.2.9.2V45c.1-1.4-.4-2.7-1.2-3.8-.6-.9-1.5-1.6-2.6-2.1-.8-.4-1.7-.7-2.6-.9-.4-.1-.8-.2-1.2-.2v-3.4h48.7v17.8h-4.8v-2.8c-.2-1.7-.8-3.3-1.9-4.6-.9-1.1-1.9-2.1-3.1-2.9-1-.6-2.1-1.1-3.3-1.4-.8-.2-1.6-.4-2.4-.3H70.8V74c.7-2.2 1.7-4.2 3.1-6 1-1.3 2.2-2.4 3.6-3.4 1-.6 2-1.1 3.1-1.5.4-.2.8-.3 1.2-.3l-.7 3.2c1-.7 2.1-1.3 3.3-1.7 1-.3 2-.5 3.1-.7h3.1l-.7 2.7c1.5 0 3 .3 4.4.9 1.1.4 2.1 1.1 2.9 1.9.6.6 1.2 1.2 1.7 1.9.2.3.4.6.5.9-.9-.2-1.8-.3-2.7-.3H94c-.9 0-1.5.2-2.2.2-.3 0-.6.1-.8.2l2 2.7c-1.1.1-2.2.2-3.3.5-.8.2-1.6.4-2.4.7-.5.2-1.1.4-1.5.7-.2.1-.4.2-.5.3l2.1 2c-.6.6-1.2 1.2-1.9 1.7-.6.4-1.2.7-1.9 1-.7.4-1.5.5-2.2.5-.8.1-1.7.2-2.6.2-1 0-1.9 0-2.9-.2-.9-.2-1.6-.2-2.2-.3-.5-.1-.9-.3-1.4-.5-.3-.2-.4-.3-.6-.3 2.1-1.9 3.8-3.4 5.3-4.6s2.9-2.2 3.9-3.1c.9-.7 1.9-1.3 2.9-1.7.7-.4 1.4-.8 2.2-1 .8-.4 1.6-.5 2.4-.5.8-.1 1.7-.2 2.5-.2h3c-.1-.1-.2-.2-.3-.2-.4-.2-.8-.4-1.2-.5-.7-.2-1.4-.3-2.1-.3H87c-1.1.1-2.2.3-3.3.7-.9.3-1.7.5-2.4.9-.5.2-1 .5-1.4.8-.2.1-.4.2-.5.3-.9.5-1.7 1-2.6 1.5-1.1.7-2.2 1.5-3.3 2.4-1.2.8-2.2 1.7-3.1 2.2-.5.5-1.1.9-1.7 1.2-.5.3-1 .5-1.5.7-.9.4-1.9.7-2.9.9-1.3.4-2.6.7-3.9.8-1.5.2-3 .3-4.5.2-1.5 0-3-.3-4.5-.8-1.2-.5-2.3-1-3.4-1.5-.3-.5-.8-.9-1.3-1.2zm53.1 35.6H48.9v-3.3c1.4 0 2.7-.3 4-1 .9-.4 1.6-1.1 2.2-1.9.5-.6.8-1.3 1-2.1l.3-1V85.1c1.9.2 3.8 0 5.7-.3 1.6-.3 3.1-.7 4.6-1.2 1.2-.5 2.4-1 3.1-1.4.4-.2.7-.4 1-.7v26.7h13c2.4.1 4.7-.7 6.5-2.2 1.6-1.5 2.9-3.4 3.7-5.5.7-1.8 1.2-3.6 1.5-5.5.2-1.5.3-2.6.3-2.6h4.1l-.1 21.2z"/><path class="st1" d="M31.8 13.5v123h86.4v-123H31.8zm82.5 119.3H35.7V17.3h78.6v115.5z"/></svg>