<?xml version="1.0" encoding="utf-8"?>
<!-- Generator: Adobe Illustrator 19.2.1, SVG Export Plug-In . SVG Version: 6.00 Build 0)  -->
<svg version="1.1" id="layer" xmlns="http://www.w3.org/2000/svg" xmlns:xlink="http://www.w3.org/1999/xlink" x="0px" y="0px"
	 viewBox="0 0 652 652" style="enable-background:new 0 0 652 652;" xml:space="preserve">
<style type="text/css">
	.st0{fill:#565458;}
</style>
<path class="st0" d="M601.2,297.6c-10.9,0-16.8,5.5-20.6,9.7c-1.7,1.9-2.2,2.7-3,2.7c-0.8,0-1-0.9-1.8-2.5
	c-0.8-1.5-4.5-9.6-15.6-9.6c-10.8,0-17.3,6.4-20.8,9.9c-0.8,0.8-2.2,1.3-2.2-0.4v-6.2c0-2.5-0.7-2.5-4.7-2.5c-3.9,0-5.2,0-5.2,2.5
	v71.2c0,1.9,1.2,1.9,5.1,1.9c3.1,0,5,0.1,5-1.9v-35.6c0-17.5,8.3-28.8,18.8-28.9c10.7,0,12.7,9.6,12.7,17v47.8
	c0,2.1,1.9,1.5,4.8,1.5c3,0,5.1,0.6,5.1-1.5v-36c0-17.5,7.9-28.8,20.2-28.9c9.2,0,11.8,7.5,11.8,14.9v49c0,2.5,0.7,2.4,4.8,2.4
	c4,0,5.3-0.2,5.3-2.4v-51.7C620.8,306,612.5,297.5,601.2,297.6 M494.9,269.8c0-1.7-0.2-2.7-2-2.7l-16.9,0.3c-1.2,0-1.1,1-1.1,4.6
	c0,2.6-0.1,4.3,1.1,4.3c6.6,0,8.6,2.9,8.6,7.2v88.1c0,2.3-0.5,2.4,4.9,2.4c5.6,0,5.3,0.2,5.3-2.4V269.8z M161.9,303.8
	c6.9,0,16.5,5.6,16.5,14.7c0,6.4-0.7,7.2-2.3,7.2c-0.6,0-29.2,0.1-31.9,0.1c-1.9,0-2-1-2-2.8C142.1,315.4,149.2,303.8,161.9,303.8
	 M143.6,334.9l37.3-0.1c3,0,5.3-0.9,6.2-3.5c1-3.6,1.8-6.6,1.3-13.5c-1.2-18.4-16.6-23.7-26.2-23.7c-21,0-32.9,17.6-32.9,41.3
	c0,13.3,2.6,20,8.1,28.2c5.6,8.1,15.9,11.2,24.4,11.2c8.5,0,22.6-5.1,25.6-8.6c0.6-0.7,0.6-2.8,0.2-5c-0.4-1.9-1.1-4.5-2.5-4
	c-2.3,0.9-9.3,6.9-21.9,6.9c-21.7,0.1-22-20.8-22.2-24.9C140.9,335,141.6,334.9,143.6,334.9 M332.5,360.8c-2.3,0.9-4.4,2.5-10.5,2.5
	c-11.1,0-13.6-8.7-13.6-16v-39.8c0.1-1.6,0.6-2,2.7-2l21.3-0.1c0.8,0,0.7-1.5,0.7-5.1c0-3.6,0.2-5.2-1.2-5.2l-20.8,0.1
	c-1.9,0-2.7-0.6-2.7-3.3v-18.7c0-2.9-0.3-3-5.1-1.5c-5.3,1.6-5.3,1.6-5.3,3.7v16.5c0,2-0.4,3.3-2.8,3.3l-8,0c-1.9,0-1.3,2.2-1.3,5.1
	c0,3,0,5.2,1.3,5.2l8.3-0.1c1.5,0.1,2.4,0.2,2.4,1.8v33.5c0.1,19.1,2.7,23.3,6.9,27.7c4.3,4.4,10.2,5.7,14.4,5.6
	c4.3,0,10.3-1.7,14.3-3.5c2-0.9,2.2-1.6,1.5-5.9C334.3,360.5,333.8,360.3,332.5,360.8 M245.7,329.9c-6.8-3.1-16.3-5.1-16.3-14.4
	c0-7.9,7.5-11.7,12.6-11.7c3.3,0,7.7,1,12.2,2.8c4.5,1.9,4.4,0.3,6.1-2.7c1.3-2.1,1.6-4.1,1.1-4.6c-2.8-2.4-10.5-5.5-19.3-5.4
	c-16,0.1-24.4,10.2-24.3,21.7c0,11,9.4,18,18.1,22.1c9,4.1,18.1,7.2,18.2,14.8c0,5-4.4,12.4-13.6,12.4c-7.7,0-15.6-4.6-18.3-5.9
	c-1.5-0.7-2.1,0.9-3.3,3.3c-1.5,3.1-2.5,5.4-1.4,6.1c5.5,3.4,15,6.7,22.8,6.7c14.4-0.1,25.5-8.8,25.5-22.8
	C265.8,337.4,252.4,333.1,245.7,329.9 M426.6,303.8c6.9,0,16.5,5.6,16.5,14.7c0,6.4-0.7,7.2-2.3,7.2c-0.6,0-29.2,0.1-31.9,0.1
	c-1.9,0-2-1-2-2.8C406.8,315.4,413.9,303.8,426.6,303.8 M408.3,334.9l37.3-0.1c3,0,5.3-0.9,6.2-3.5c1-3.6,1.8-6.6,1.3-13.5
	C452,299.3,436.6,294,427,294c-21,0-32.9,17.6-32.9,41.3c0,13.3,2.6,20,8.1,28.2c5.6,8.1,15.9,11.2,24.4,11.2
	c8.5,0,22.6-5.1,25.6-8.6c0.6-0.7,0.6-2.8,0.2-5c-0.4-1.9-1.1-4.5-2.5-4c-2.3,0.9-9.3,6.9-21.9,6.9c-21.7,0.1-22-20.8-22.2-24.9
	C405.6,335,406.3,334.9,408.3,334.9 M105.6,296.4c-4.2,0-5.3-0.3-6,1.3c-0.2,0.6-10.8,54.8-10.8,54.8c-0.4,1.6-0.7,2.3-1.6,2.3
	c-0.9,0-1.3-0.4-1.6-1.8l-15.2-54.6c-0.4-1.6-1.1-2.2-4.8-2.2s-4.5,0.4-5,2.2L46,353c-0.4,1.4-0.8,1.8-1.7,1.8
	c-0.8,0-1.2-1.6-1.6-3.2l-11.4-54.1c-0.6-2-1.7-1.5-5.5-1.5c-3.8,0-4.9,0.2-4.9,2.3c0,1,16.1,69.6,16.8,72.5
	c0.8,3.1,1.9,4.1,6.2,4.1c5.1,0,5.7-2.2,6.5-4.1l13.8-49.1c0.5-1.4,0.5-2.1,1.5-2.1c1,0,1.1,0.8,1.5,2.1L81,370.8
	c0.8,1.9,1.4,4.1,6.5,4.1c4.3,0,5.4-1,6.2-4.1c0.7-2.9,16.4-72,16.4-72.8C109.9,296.1,108.4,296.4,105.6,296.4"/>
</svg>
